<svg xmlns="http://www.w3.org/2000/svg" viewBox="30 272 600 120">
  <path
    class="dark:fill-white"
    d="M504.5,389.6c-0.9-0.1-1.8-0.3-2.7-0.4c-10.6-1.3-20.1-5.3-28.4-12.1c-11.1-9-17.9-20.6-20.2-34.8
		c-1.9-11.8-0.3-23.2,5-33.9c5.4-10.9,13.5-19.2,24.1-24.9c6.2-3.3,12.8-5.4,19.8-6.2c15.8-1.7,30.1,2.3,42.5,12.4
		c9.8,8,16.3,18.2,19,30.5c4.3,19.5-0.3,36.9-13.8,51.7c-8.2,8.9-18.4,14.3-30.2,16.7c-1.8,0.4-3.7,0.5-5.6,0.8
		c-0.3,0-0.6,0.1-0.8,0.2C510.2,389.6,507.4,389.6,504.5,389.6z M536.4,337.9c1.9-8.6-1.4-21.7-13.3-28.8c-11-6.6-25.3-4.9-34.5,4.5
		c-9.7,9.9-10.5,24.8-3.1,35.6c7.6,11.1,20.5,13.5,27.9,11.7c-1.7-3.3-2.3-6.8-1.7-10.4c0.6-3.7,2.1-7,4.9-9.5
		C522.5,335.5,529.1,334.8,536.4,337.9z M536.5,338.4c-1.1,5.8-3.7,10.8-7.9,14.9c-4.1,4.1-9.1,6.7-14.9,7.8
		c2.2,4.8,8.6,9.6,16.5,8.7c7.8-0.9,14.1-6.9,15-15.1C546.1,347.1,541.5,340.7,536.5,338.4z"
  />
  <path
    class="dark:fill-white"
    d="M397.9,389.6c-0.8-0.1-1.6-0.3-2.4-0.5c-1.8-0.4-3.5-0.9-5.3-1.3c-0.2-0.1-0.4-0.2-0.7-0.3c0.9-3.4,1.8-6.7,2.7-10.2
		c0.5,0.1,1,0.2,1.4,0.3c1.6,0.5,3.3,0.9,5,0.8c0.7,0,1.4-0.1,2.1-0.3c1.4-0.4,2.5-1.2,3.2-2.6c0.8-1.7,1.5-3.5,2.2-5.2
		c0.2-0.5,0-0.9-0.2-1.3c-1.7-4.2-3.5-8.5-5.2-12.7c-3.5-8.6-7.1-17.2-10.6-25.7c-0.2-0.4-0.3-0.7-0.5-1.1c-3.4,0-6.8,0-10.2,0
		c0,13.4,0,26.7,0,39.9c-0.9,0.2-11.9,0.3-13.4,0.1c-0.1-2.6,0-5.3,0-7.9c0-2.7,0-5.3,0-8s0-5.3,0-8s0-5.3,0-8c0-2.7,0-5.3,0-8.1
		c-2.3-0.2-4.5,0-6.7-0.1c-0.3-0.8-0.4-8.4-0.1-10.3c2.2,0,4.4,0,6.7,0c0-0.5,0.1-1,0.1-1.4c0-2.4,0-4.8,0.4-7.2
		c0.4-2.2,0.9-4.3,1.9-6.2c2.2-4.3,5.8-6.7,10.5-7.6c3.2-0.6,6.3-0.4,9.5-0.1c1.5,0.1,3,0.4,4.6,0.7c-0.3,3.3-0.5,6.4-0.8,9.7
		c-0.8-0.1-1.4-0.3-2.1-0.4c-1.5-0.1-3.1-0.4-4.6-0.3c-2.9,0.1-4.8,1.7-5.6,4.5c-0.7,2.7-0.4,5.4-0.5,8.2c6.8,0,13.6,0,20.4,0
		c4.4,11.9,8.8,23.7,13.3,35.7c4.4-12,8.7-23.8,13.1-35.6c4.6,0,9.2,0,13.9,0c-0.1,0.4-0.3,0.7-0.4,1.1
		c-7.3,17.8-14.6,35.6-21.9,53.5c-0.9,2.2-1.9,4.4-2.9,6.6c-1,2.1-2.3,4-3.9,5.6c-1.8,1.7-3.8,2.9-6.2,3.4c-0.2,0-0.4,0.2-0.6,0.2
		C401.9,389.6,399.9,389.6,397.9,389.6z"
  />
  <path
    class="dark:fill-white"
    d="M95.3,358.5c2.8,3.1,5.5,6.2,8.4,9.3c-2.9,2.5-5.7,5-8.6,7.5c-3-3.4-5.9-6.6-8.8-9.9c-0.2,0.1-0.4,0.1-0.6,0.2
		c-5.2,2.6-10.6,4-16.4,4.2c-6.4,0.2-12.6-0.8-18.4-3.5c-10.4-4.8-16.9-12.9-19.5-24c-1.8-7.8-1.5-15.7,1.2-23.3
		c3.6-10.2,10.7-17.1,20.8-21c6.3-2.4,12.8-3,19.4-2.3c5.5,0.5,10.7,2.1,15.4,4.8c8.7,5,14.1,12.5,16.4,22.2
		c1.2,4.7,1.5,9.6,0.9,14.4c-0.9,7.8-4,14.6-9.2,20.4c-0.2,0.2-0.5,0.5-0.7,0.7C95.4,358.3,95.4,358.3,95.3,358.5z M86.7,348.7
		c0.7-1.1,1.4-2.1,1.9-3.1c4-8.2,4.2-16.5,0.7-24.8c-2.6-6.2-7.2-10.3-13.6-12.4c-4.1-1.3-8.3-1.6-12.5-0.7
		c-7.2,1.4-12.7,5.3-16,11.9c-3.4,6.8-3.7,13.9-1.8,21.2c1.4,5.4,4.4,9.9,9.1,13c6.9,4.6,14.3,5.1,22.1,2.5c0.4-0.1,0.8-0.3,1.3-0.6
		c-2.7-3.1-5.4-6.1-8.1-9.2c3-2.6,5.8-5,8.7-7.6C81.2,342.2,83.8,345.4,86.7,348.7z"
  />
  <path
    class="dark:fill-white"
    d="M316.4,369.7c0-2.6-0.1-5.2-0.1-7.7c-0.1,0-0.1,0-0.2-0.1c-0.2,0.2-0.4,0.5-0.6,0.7c-3.5,5-8.4,7.6-14.5,8.1
		c-4,0.4-8-0.1-11.7-1.7c-5.5-2.3-9.4-6.2-11.8-11.6c-3.4-7.9-3.8-15.9-0.7-24c3.5-8.9,10.1-13.9,19.6-15.1c3.6-0.5,7.2-0.2,10.7,1
		c3.2,1.1,5.9,3.1,8,5.8c0.2,0.3,0.4,0.5,0.7,0.9c0-9.6,0-18.9,0-28.4c4.4,0,8.7,0,13.1,0c0.2,0.8,0.3,70.2,0.1,71.9
		C324.8,369.7,320.7,369.7,316.4,369.7z M301.4,360c6.5,0,11-2.9,13.2-8c1.3-3.1,1.7-6.3,1.4-9.7c-0.4-3.4-1.5-6.4-3.7-9
		c-5.5-6.8-16.9-6.6-21.5,1.8c-3,5.3-3.3,11-0.9,16.6C292.2,357.1,296.5,359.8,301.4,360z"
  />
  <path
    class="dark:fill-white"
    d="M212.9,369.7c-4.3,0-8.5,0-12.8,0c-0.1-1.7-0.2-3.5-0.3-5.3c-0.2,0.1-0.3,0.1-0.3,0.2c-2.1,2.8-5.1,4.4-8.4,5.3
		c-5.1,1.4-10.2,1.4-15.1-0.6c-5.7-2.3-8.8-6.7-9.3-12.9c-0.2-3,0.2-5.7,1.8-8.3c1.7-2.7,4.1-4.4,6.9-5.7c2.9-1.4,6.1-2.2,9.3-2.5
		c4-0.4,8-0.6,12.1-0.9c0.8-0.1,1.7-0.1,2.7-0.2c0.1-1.5,0.1-3-0.3-4.5c-0.8-2.9-2.8-4.6-5.6-5.6c-2.1-0.7-4.2-0.8-6.4-0.7
		c-4.7,0.2-9.2,1.5-13.3,4.1c-1.4-2.8-2.7-5.7-4.1-8.6c1.1-0.6,2.1-1.1,3.1-1.6c4.8-2.2,9.7-3.4,15-3.7c3.9-0.2,7.8,0.1,11.5,1.2
		c4.9,1.5,8.8,4.2,11.2,8.8c1.3,2.3,1.9,4.9,2.1,7.5c0.2,1.8,0.3,3.7,0.3,5.5c0,9,0,18,0,27C212.9,368.8,212.9,369.2,212.9,369.7z
		 M199.6,347c-1,0.1-1.8,0.1-2.7,0.2c-2.6,0.2-5.2,0.3-7.9,0.5c-2,0.2-3.9,0.6-5.7,1.6c-2.5,1.3-3.6,3.8-3.2,6.5
		c0.5,3.2,2.6,5,5.5,5.6c5.3,1.1,9.7-0.4,13.3-4.4c0.4-0.5,0.6-1,0.6-1.6c0-1.8,0-3.7,0-5.6C199.6,349,199.6,348.1,199.6,347z"
  />
  <path
    class="dark:fill-white"
    d="M269,369.7c-4.6,0-9,0-13.5,0c0-0.5,0-1,0-1.4c0-8.9,0-17.8,0-26.7c0-2.2-0.2-4.4-0.8-6.5c-1.1-3.7-3.6-5.7-7.5-5.8
		c-1.1,0-2.3,0-3.4,0.3c-2.9,0.6-4.9,2.3-6.3,4.9c-1.5,2.9-2,6-2,9.2c0,8.2,0,16.4,0,24.6c0,0.4,0,0.9,0,1.5c-4.5,0-8.9,0-13.4,0
		c0-16.9,0-33.7,0-50.5c4.5,0,8.9,0,13.3,0c0,2.5,0,4.9,0,7.5c0.3-0.3,0.4-0.5,0.6-0.7c2.9-4.9,7.3-7.3,12.8-7.8
		c2.7-0.2,5.3-0.1,7.9,0.5c5.7,1.3,9.3,5,10.9,10.5c0.7,2.2,1.1,4.5,1.2,6.9c0.1,2.1,0.1,4.1,0.1,6.2c0,8.6,0,17.2,0,25.9
		C269,368.8,269,369.2,269,369.7z"
  />
  <path
    class="dark:fill-white"
    d="M146.5,319.3c4.5,0,8.9,0,13.4,0c0,16.8,0,33.6,0,50.4c-4.3,0-8.5,0-12.9,0c-0.2-2.2,0-4.3-0.2-6.7c-1,1.1-1.7,2.1-2.6,3
		c-2.7,2.6-6,3.9-9.6,4.4c-3.3,0.5-6.5,0.3-9.7-0.5c-5.4-1.4-8.8-4.8-10.4-10.1c-1.1-3.4-1.4-6.9-1.4-10.4c0-9.7,0-19.4,0-29.1
		c0-0.4,0-0.7,0.1-1.1c4.4,0,8.8,0,13.3,0c0,0.5,0,0.9,0,1.3c0,8.8,0,17.6,0,26.4c0,1.9,0.4,3.9,0.6,5.8c0,0.4,0.2,0.8,0.3,1.2
		c1,3.2,3.1,5.1,6.5,5.5c3.2,0.3,6.1-0.2,8.6-2.4c1.6-1.4,2.5-3.3,3.1-5.3c0.7-2.4,0.9-4.9,0.9-7.3c0-8,0-15.9,0-23.9
		C146.5,320.2,146.5,319.8,146.5,319.3z"
  />
  <path
    class="dark:fill-white"
    d="M353.2,369.7c-4.4,0-8.8,0-13.2,0c0,0-0.1-0.1-0.1-0.1c0,0-0.1-0.1-0.1-0.1c0-0.4-0.1-0.7-0.1-1.1c0-16.3,0-32.6,0-48.8
		c0-0.1,0.1-0.2,0.1-0.4c4.4,0,8.8,0,13.2,0C353.2,336.1,353.2,352.9,353.2,369.7z"
  />
  <path
    class="dark:fill-white"
    d="M346.6,296.3c2.4,0.1,4.5,0.8,6.1,2.5c3.1,3.3,2.5,9.8-2.8,11.8c-2.3,0.9-4.6,0.8-6.9-0.1c-3.1-1.2-4.7-4-4.5-7.3
		c0.2-3.3,2.4-5.8,5.6-6.6C344.9,296.4,345.8,296.4,346.6,296.3z"
  />
</svg>